<svg width="462" height="598" viewBox="0 0 462 598" fill="none" xmlns="http://www.w3.org/2000/svg">
<path d="M213.926 1.05317C175.126 7.35317 143.926 34.2532 131.126 72.0532L128.426 80.0532L86.826 80.3532C63.826 80.4532 45.126 80.2532 45.226 79.8532C45.226 79.3532 48.326 76.5532 52.226 73.5532C60.626 66.8532 62.826 62.9532 61.226 57.4532C58.526 48.5532 49.726 45.9532 41.926 51.8532C31.226 60.0532 2.62599 83.8532 1.32599 85.6532C-0.474013 88.3532 -0.474013 95.0532 1.52599 97.9532C4.22599 102.053 43.326 133.453 47.326 134.653C52.326 136.253 57.926 133.553 60.526 128.253C63.526 121.953 61.726 117.853 52.626 110.353C48.526 107.053 45.126 104.153 45.126 103.953C45.126 103.753 63.326 103.553 85.526 103.553H125.826L126.426 112.353C127.726 132.053 135.726 152.753 148.326 168.653C155.026 177.153 162.026 178.453 168.126 172.353C170.626 169.953 171.126 168.553 171.126 164.653C171.126 160.553 170.526 159.153 166.526 153.953C152.826 136.353 146.826 113.053 150.526 91.8532C153.726 73.6532 160.726 59.8532 173.526 46.9532C186.926 33.4532 202.926 25.7532 222.026 23.6532C246.526 20.9532 269.326 28.9532 287.126 46.5532C301.226 60.3532 308.026 74.1532 310.626 93.6532C313.526 115.853 308.626 134.653 295.226 152.953C292.526 156.753 289.926 161.153 289.626 162.753C288.626 167.053 291.826 172.653 296.426 174.953C302.426 177.853 306.826 176.053 313.126 168.253C324.426 154.053 333.126 131.553 334.726 112.153L335.426 103.553H375.926H416.426L409.026 109.553C400.626 116.453 399.226 118.453 399.126 124.153C399.126 131.953 408.026 137.753 414.826 134.353C419.926 131.753 457.626 100.353 459.426 97.2532C461.426 93.5532 461.626 90.6532 459.926 86.9532C458.826 84.5532 420.126 52.2532 415.226 49.6532C410.826 47.2532 403.826 49.2532 400.726 53.7532C398.826 56.3532 398.726 63.1532 400.426 66.2532C401.126 67.3532 404.526 70.6532 408.126 73.5532C411.726 76.3532 414.826 79.1532 414.926 79.6532C415.126 80.1532 398.526 80.5532 373.826 80.5532H332.426L329.126 70.5532C318.026 36.3532 287.826 9.65317 251.626 1.95317C241.526 -0.246829 224.226 -0.646829 213.926 1.05317Z" fill="white"/>
<path d="M216.926 58.453C203.826 62.653 193.726 72.253 188.426 85.553C186.726 89.753 186.626 98.453 186.126 219.453L185.626 348.853L179.726 339.953C152.426 298.853 138.926 288.453 114.926 289.853C92.126 291.153 78.826 302.553 78.626 320.653C78.626 327.153 78.926 327.853 87.726 345.153C92.826 355.053 102.826 375.953 110.026 391.753C141.026 459.653 156.426 487.753 174.026 508.053C180.026 514.953 182.726 517.253 197.126 527.953C208.226 536.253 230.826 557.553 249.826 577.653C259.026 587.453 267.826 596.053 269.326 596.653C275.026 598.953 283.226 594.853 284.726 588.853C286.226 582.953 284.526 580.453 267.126 561.953C244.726 538.353 224.626 519.553 208.526 507.553C194.626 497.053 188.626 490.653 178.826 475.553C166.226 456.153 154.126 432.453 130.926 381.553C123.226 364.753 113.626 344.553 109.526 336.653C105.426 328.753 102.126 321.253 102.126 319.953C102.126 316.853 105.226 314.953 112.726 313.553C118.026 312.553 119.726 312.553 124.726 314.053C129.526 315.453 131.626 316.753 136.626 321.953C147.626 333.453 168.226 364.153 182.726 390.953C190.426 405.153 195.126 408.153 203.126 404.053C209.526 400.753 209.126 411.353 209.126 247.353C209.126 144.453 209.426 96.853 210.226 94.153C211.726 88.853 218.526 82.253 224.326 80.653C235.426 77.553 246.926 84.153 250.126 95.453C250.726 97.753 251.126 132.953 251.126 192.353C251.126 295.653 250.726 289.753 257.726 293.053C262.426 295.253 266.926 294.353 270.726 290.453L273.626 287.453L274.126 268.753C274.626 251.253 274.826 249.753 277.026 245.853C280.726 239.453 286.026 236.253 293.526 235.753C300.626 235.253 304.526 236.753 309.926 241.853C315.226 246.953 316.126 251.853 316.126 277.053C316.126 300.253 316.326 301.653 321.126 305.253C327.526 310.053 339.126 304.353 339.126 296.253C339.126 284.853 349.126 274.553 360.126 274.553C364.726 274.553 370.126 276.653 373.726 279.753C380.226 285.553 380.526 286.753 381.126 310.853L381.626 332.753L384.926 335.653C387.426 337.953 389.126 338.553 392.626 338.553C398.826 338.553 402.926 334.853 404.226 328.053C405.326 322.153 407.426 318.753 410.726 317.553C415.226 315.753 418.926 316.453 422.326 319.453L425.626 322.353V379.253V436.053L422.326 449.053C419.026 461.553 409.726 490.653 403.226 508.553C399.626 518.653 399.426 523.353 402.226 534.453C405.026 545.553 409.526 556.553 418.726 574.753C427.326 591.653 430.726 596.153 435.626 597.153C442.426 598.353 449.126 592.753 449.126 585.653C449.126 583.753 446.026 576.553 441.226 567.353C432.826 551.353 426.226 535.553 424.226 527.053C423.026 522.153 423.226 521.553 427.426 510.553C436.926 486.153 446.726 452.753 449.126 437.053C449.826 432.453 450.126 410.553 449.926 374.553C449.626 319.853 449.626 318.953 447.426 314.353C443.026 304.753 436.026 298.253 426.926 294.953C422.526 293.453 411.026 292.853 407.426 293.953C405.526 294.553 405.226 294.053 404.226 288.353C399.626 261.753 372.826 245.453 347.026 253.553C343.526 254.553 340.626 255.353 340.526 255.253C340.326 255.153 339.626 251.853 338.726 247.953C336.826 238.453 333.026 231.353 326.526 224.853C314.426 212.653 296.826 208.853 280.126 214.653C277.126 215.653 274.626 216.553 274.426 216.553C274.326 216.553 274.026 187.853 273.926 152.753L273.626 89.053L270.426 82.253C264.726 70.253 254.126 61.253 241.726 57.953C234.726 56.053 223.726 56.253 216.926 58.453Z" fill="white"/>
</svg>
